<svg width="313" height="291" viewBox="0 0 313 291" fill="none" xmlns="http://www.w3.org/2000/svg">
<path fill-rule="evenodd" clip-rule="evenodd" d="M138.879 2.1779C174.736 2.13891 212.135 0.64513 242.284 20.0552C273.346 40.0526 293.513 73.3005 304.256 108.646C314.853 143.511 315.838 181.708 301.615 215.257C288.058 247.237 261.453 274.128 228.93 286.326C199.941 297.197 168.887 283.909 138.879 276.289C116.27 270.548 97.612 258.406 76.8802 247.715C51.2747 234.509 14.5377 232.968 3.37629 206.408C-7.72171 179.999 20.6533 153.782 25.5455 125.556C31.7169 89.9498 11.1902 46.8932 35.6368 20.2799C59.8657 -6.09646 103.064 2.21685 138.879 2.1779Z" fill="#C4C4C4"/>
</svg>
