<svg width="329" height="363" viewBox="0 0 329 363" fill="none" xmlns="http://www.w3.org/2000/svg">
<path fill-rule="evenodd" clip-rule="evenodd" d="M181.35 21.8455C200.887 27.8644 219.937 33.5768 238.136 42.887C256.026 52.0387 278.165 58.3577 287.504 76.1501C296.99 94.2224 283.022 116.665 287.335 136.615C291.582 156.26 307.581 171.14 312.265 190.686C318.611 217.162 340.596 253.744 319.546 271.012C295.647 290.618 254.496 242.118 228.738 259.208C196.72 280.451 219.488 358.022 181.35 362.702C145.97 367.043 151.93 297.995 128.01 271.567C114.667 256.826 85.8844 262.223 75.2166 245.444C64.3497 228.351 83.5207 202.945 73.2744 185.473C56.6577 157.138 8.60195 151.83 1.50877 119.757C-4.3718 93.1677 25.5697 71.3691 43.5079 50.8796C60.9636 30.9412 78.8468 7.26282 104.778 1.80092C130.923 -3.70617 155.815 13.9786 181.35 21.8455Z" fill="#C4C4C4"/>
</svg>
